<mxfile host="app.diagrams.net" modified="2020-12-23T21:56:48.439Z" agent="5.0 (Windows)" etag="TiDRv7ymysWbmwvtjS8H" version="14.0.3" type="github">
  <diagram name="Page-1" id="13e1069c-82ec-6db2-03f1-153e76fe0fe0">
    <mxGraphModel dx="1013" dy="489" grid="1" gridSize="10" guides="1" tooltips="1" connect="1" arrows="1" fold="1" page="1" pageScale="1" pageWidth="1100" pageHeight="850" background="#ffffff" math="0" shadow="0">
      <root>
        <mxCell id="0" />
        <mxCell id="1" parent="0" />
        <mxCell id="7baba1c4bc27f4b0-2" value="Обработка загрузки в 1С" style="shape=umlLifeline;perimeter=lifelinePerimeter;whiteSpace=wrap;html=1;container=1;collapsible=0;recursiveResize=0;outlineConnect=0;rounded=1;shadow=0;comic=0;labelBackgroundColor=none;strokeWidth=1;fontFamily=Verdana;fontSize=12;align=center;" parent="1" vertex="1">
          <mxGeometry x="240" y="80" width="100" height="580" as="geometry" />
        </mxCell>
        <mxCell id="z16xJ5DNF8u_oxPosoF0-1" value="" style="html=1;points=[];perimeter=orthogonalPerimeter;" vertex="1" parent="7baba1c4bc27f4b0-2">
          <mxGeometry x="45" y="65" width="10" height="390" as="geometry" />
        </mxCell>
        <mxCell id="7baba1c4bc27f4b0-3" value="Система 1С" style="shape=umlLifeline;perimeter=lifelinePerimeter;whiteSpace=wrap;html=1;container=1;collapsible=0;recursiveResize=0;outlineConnect=0;rounded=1;shadow=0;comic=0;labelBackgroundColor=none;strokeWidth=1;fontFamily=Verdana;fontSize=12;align=center;" parent="1" vertex="1">
          <mxGeometry x="400" y="80" width="100" height="580" as="geometry" />
        </mxCell>
        <mxCell id="7baba1c4bc27f4b0-13" value="" style="html=1;points=[];perimeter=orthogonalPerimeter;rounded=0;shadow=0;comic=0;labelBackgroundColor=none;strokeWidth=1;fontFamily=Verdana;fontSize=12;align=center;" parent="7baba1c4bc27f4b0-3" vertex="1">
          <mxGeometry x="45" y="285" width="10" height="201" as="geometry" />
        </mxCell>
        <mxCell id="z16xJ5DNF8u_oxPosoF0-20" value="" style="html=1;points=[];perimeter=orthogonalPerimeter;" vertex="1" parent="7baba1c4bc27f4b0-3">
          <mxGeometry x="48" y="445" width="10" height="40" as="geometry" />
        </mxCell>
        <mxCell id="z16xJ5DNF8u_oxPosoF0-21" value="&lt;div&gt;&lt;font style=&quot;font-size: 9px&quot;&gt;Заполняет раздел &lt;br&gt;&lt;/font&gt;&lt;/div&gt;&lt;div&gt;&lt;font style=&quot;font-size: 9px&quot;&gt;Сотрудники&lt;br&gt;&lt;/font&gt;&lt;/div&gt;" style="edgeStyle=orthogonalEdgeStyle;html=1;align=left;spacingLeft=2;endArrow=block;rounded=0;entryX=1;entryY=0;" edge="1" parent="7baba1c4bc27f4b0-3">
          <mxGeometry relative="1" as="geometry">
            <mxPoint x="58" y="425" as="sourcePoint" />
            <Array as="points">
              <mxPoint x="75" y="425" />
            </Array>
            <mxPoint x="58" y="445" as="targetPoint" />
          </mxGeometry>
        </mxCell>
        <mxCell id="7baba1c4bc27f4b0-4" value="Бухгалтер" style="shape=umlLifeline;perimeter=lifelinePerimeter;whiteSpace=wrap;html=1;container=1;collapsible=0;recursiveResize=0;outlineConnect=0;rounded=1;shadow=0;comic=0;labelBackgroundColor=none;strokeWidth=1;fontFamily=Verdana;fontSize=12;align=center;" parent="1" vertex="1">
          <mxGeometry x="540" y="80" width="100" height="580" as="geometry" />
        </mxCell>
        <mxCell id="7baba1c4bc27f4b0-19" value="" style="html=1;points=[];perimeter=orthogonalPerimeter;rounded=0;shadow=0;comic=0;labelBackgroundColor=none;strokeWidth=1;fontFamily=Verdana;fontSize=12;align=center;" parent="7baba1c4bc27f4b0-4" vertex="1">
          <mxGeometry x="45" y="405" width="10" height="40" as="geometry" />
        </mxCell>
        <mxCell id="7baba1c4bc27f4b0-8" value="Инженер бухгалтерии" style="shape=umlLifeline;perimeter=lifelinePerimeter;whiteSpace=wrap;html=1;container=1;collapsible=0;recursiveResize=0;outlineConnect=0;rounded=1;shadow=0;comic=0;labelBackgroundColor=none;strokeWidth=1;fontFamily=Verdana;fontSize=12;align=center;" parent="1" vertex="1">
          <mxGeometry x="100" y="80" width="100" height="580" as="geometry" />
        </mxCell>
        <mxCell id="7baba1c4bc27f4b0-9" value="" style="html=1;points=[];perimeter=orthogonalPerimeter;rounded=0;shadow=0;comic=0;labelBackgroundColor=none;strokeWidth=1;fontFamily=Verdana;fontSize=12;align=center;" parent="7baba1c4bc27f4b0-8" vertex="1">
          <mxGeometry x="45" y="65" width="10" height="160" as="geometry" />
        </mxCell>
        <mxCell id="7baba1c4bc27f4b0-28" value="" style="html=1;points=[];perimeter=orthogonalPerimeter;rounded=0;shadow=0;comic=0;labelBackgroundColor=none;strokeWidth=1;fontFamily=Verdana;fontSize=12;align=center;" parent="7baba1c4bc27f4b0-8" vertex="1">
          <mxGeometry x="45" y="415" width="10" height="40" as="geometry" />
        </mxCell>
        <mxCell id="7baba1c4bc27f4b0-11" value="&lt;font style=&quot;font-size: 9px&quot;&gt;запустил обработку&lt;/font&gt;" style="html=1;verticalAlign=bottom;endArrow=block;entryX=0;entryY=0;labelBackgroundColor=none;fontFamily=Verdana;fontSize=12;edgeStyle=elbowEdgeStyle;elbow=vertical;" parent="1" source="7baba1c4bc27f4b0-9" edge="1">
          <mxGeometry relative="1" as="geometry">
            <mxPoint x="220" y="155" as="sourcePoint" />
            <mxPoint x="285" y="145" as="targetPoint" />
          </mxGeometry>
        </mxCell>
        <mxCell id="z16xJ5DNF8u_oxPosoF0-3" value="&lt;font style=&quot;font-size: 9px&quot;&gt;открывает окно ввода&lt;/font&gt;" style="html=1;verticalAlign=bottom;endArrow=open;dashed=1;endSize=8;exitX=0.057;exitY=0.327;exitDx=0;exitDy=0;exitPerimeter=0;" edge="1" parent="1">
          <mxGeometry x="0.04" y="-5" relative="1" as="geometry">
            <mxPoint x="152" y="183" as="targetPoint" />
            <mxPoint x="287.56999999999994" y="183.13" as="sourcePoint" />
            <mxPoint as="offset" />
          </mxGeometry>
        </mxCell>
        <mxCell id="z16xJ5DNF8u_oxPosoF0-4" value="&lt;font style=&quot;font-size: 9px&quot;&gt;выбирает файл загрузки&lt;/font&gt;" style="html=1;verticalAlign=bottom;endArrow=block;" edge="1" parent="1">
          <mxGeometry width="80" relative="1" as="geometry">
            <mxPoint x="157" y="241" as="sourcePoint" />
            <mxPoint x="285" y="241" as="targetPoint" />
          </mxGeometry>
        </mxCell>
        <mxCell id="z16xJ5DNF8u_oxPosoF0-5" value="&lt;font style=&quot;font-size: 9px&quot;&gt;заполняет поле &quot;График&quot;&lt;/font&gt;" style="html=1;verticalAlign=bottom;endArrow=block;entryX=0.057;entryY=0.783;entryDx=0;entryDy=0;entryPerimeter=0;" edge="1" parent="1">
          <mxGeometry width="80" relative="1" as="geometry">
            <mxPoint x="157" y="269.09" as="sourcePoint" />
            <mxPoint x="285.56999999999994" y="268.71" as="targetPoint" />
          </mxGeometry>
        </mxCell>
        <mxCell id="z16xJ5DNF8u_oxPosoF0-6" value="&lt;font style=&quot;font-size: 9px&quot;&gt;заполняет поле &quot;Организация&quot;&lt;br&gt;&lt;/font&gt;" style="html=1;verticalAlign=bottom;endArrow=block;" edge="1" parent="1">
          <mxGeometry width="80" relative="1" as="geometry">
            <mxPoint x="157" y="213" as="sourcePoint" />
            <mxPoint x="285" y="213" as="targetPoint" />
          </mxGeometry>
        </mxCell>
        <mxCell id="z16xJ5DNF8u_oxPosoF0-7" value="&lt;div&gt;&lt;font style=&quot;font-size: 9px&quot;&gt;инициирует &lt;br&gt;&lt;/font&gt;&lt;/div&gt;&lt;div&gt;&lt;font style=&quot;font-size: 9px&quot;&gt;выполнение загрузки&lt;/font&gt;&lt;/div&gt;" style="html=1;verticalAlign=bottom;endArrow=block;entryX=0.057;entryY=0.783;entryDx=0;entryDy=0;entryPerimeter=0;" edge="1" parent="1">
          <mxGeometry width="80" relative="1" as="geometry">
            <mxPoint x="157" y="305.0899999999999" as="sourcePoint" />
            <mxPoint x="285.56999999999994" y="304.71000000000004" as="targetPoint" />
          </mxGeometry>
        </mxCell>
        <mxCell id="z16xJ5DNF8u_oxPosoF0-9" value="&lt;div&gt;&lt;font style=&quot;font-size: 9px&quot;&gt;Заполняет раздел &lt;br&gt;&lt;/font&gt;&lt;/div&gt;&lt;div&gt;&lt;font style=&quot;font-size: 9px&quot;&gt;Физические лица&lt;/font&gt;&lt;/div&gt;" style="html=1;verticalAlign=bottom;endArrow=block;exitX=0.481;exitY=0.988;exitDx=0;exitDy=0;exitPerimeter=0;" edge="1" parent="1" source="z16xJ5DNF8u_oxPosoF0-10">
          <mxGeometry x="0.0031" width="80" relative="1" as="geometry">
            <mxPoint x="287" y="365" as="sourcePoint" />
            <mxPoint x="446.5" y="365" as="targetPoint" />
            <mxPoint as="offset" />
          </mxGeometry>
        </mxCell>
        <mxCell id="z16xJ5DNF8u_oxPosoF0-10" value="" style="html=1;points=[];perimeter=orthogonalPerimeter;" vertex="1" parent="1">
          <mxGeometry x="290" y="325" width="10" height="40" as="geometry" />
        </mxCell>
        <mxCell id="z16xJ5DNF8u_oxPosoF0-11" value="&lt;div&gt;&lt;font style=&quot;font-size: 9px&quot;&gt;обрабатывает &lt;br&gt;&lt;/font&gt;&lt;/div&gt;&lt;div&gt;&lt;font style=&quot;font-size: 9px&quot;&gt;данные файла&lt;/font&gt;&lt;/div&gt;" style="edgeStyle=orthogonalEdgeStyle;html=1;align=left;spacingLeft=2;endArrow=block;rounded=0;entryX=1;entryY=0;" edge="1" target="z16xJ5DNF8u_oxPosoF0-10" parent="1">
          <mxGeometry relative="1" as="geometry">
            <mxPoint x="295" y="305" as="sourcePoint" />
            <Array as="points">
              <mxPoint x="320" y="305" />
            </Array>
          </mxGeometry>
        </mxCell>
        <mxCell id="z16xJ5DNF8u_oxPosoF0-12" value="&lt;div&gt;&lt;font style=&quot;font-size: 9px&quot;&gt;Заполняет справочник &lt;br&gt;&lt;/font&gt;&lt;/div&gt;&lt;div&gt;&lt;font style=&quot;font-size: 9px&quot;&gt;Подразделения&lt;/font&gt;&lt;/div&gt;" style="html=1;verticalAlign=bottom;endArrow=block;exitX=0.886;exitY=0.714;exitDx=0;exitDy=0;exitPerimeter=0;" edge="1" parent="1">
          <mxGeometry x="0.0031" width="80" relative="1" as="geometry">
            <mxPoint x="293.86" y="394.9" as="sourcePoint" />
            <mxPoint x="446.5" y="395" as="targetPoint" />
            <mxPoint as="offset" />
          </mxGeometry>
        </mxCell>
        <mxCell id="z16xJ5DNF8u_oxPosoF0-13" value="&lt;div&gt;&lt;font style=&quot;font-size: 9px&quot;&gt;Заполняет раздел &lt;br&gt;&lt;/font&gt;&lt;/div&gt;&lt;div&gt;&lt;font style=&quot;font-size: 9px&quot;&gt;Штатное расписание&lt;br&gt;&lt;/font&gt;&lt;/div&gt;" style="html=1;verticalAlign=bottom;endArrow=block;exitX=0.886;exitY=0.8;exitDx=0;exitDy=0;exitPerimeter=0;" edge="1" parent="1">
          <mxGeometry x="0.0031" width="80" relative="1" as="geometry">
            <mxPoint x="293.86" y="426" as="sourcePoint" />
            <mxPoint x="446.5" y="426" as="targetPoint" />
            <mxPoint as="offset" />
          </mxGeometry>
        </mxCell>
        <mxCell id="z16xJ5DNF8u_oxPosoF0-15" value="&lt;div&gt;&lt;font style=&quot;font-size: 9px&quot;&gt;Создает документы&lt;/font&gt;&lt;/div&gt;&lt;div&gt;&lt;font style=&quot;font-size: 9px&quot;&gt;Прием на работу списком&lt;/font&gt;&lt;br&gt;&lt;/div&gt;" style="html=1;verticalAlign=bottom;endArrow=block;exitX=0.886;exitY=0.971;exitDx=0;exitDy=0;exitPerimeter=0;" edge="1" parent="1">
          <mxGeometry x="0.0031" width="80" relative="1" as="geometry">
            <mxPoint x="294" y="464.9999999999999" as="sourcePoint" />
            <mxPoint x="446.64" y="465.15" as="targetPoint" />
            <mxPoint as="offset" />
          </mxGeometry>
        </mxCell>
        <mxCell id="z16xJ5DNF8u_oxPosoF0-17" value="&lt;font style=&quot;font-size: 9px&quot;&gt;выводит журнал загрузки&lt;/font&gt;" style="html=1;verticalAlign=bottom;endArrow=block;" edge="1" parent="1">
          <mxGeometry width="80" relative="1" as="geometry">
            <mxPoint x="285" y="503" as="sourcePoint" />
            <mxPoint x="154.66666666666652" y="503" as="targetPoint" />
          </mxGeometry>
        </mxCell>
        <mxCell id="z16xJ5DNF8u_oxPosoF0-18" value="&lt;font style=&quot;font-size: 9px&quot;&gt;закрыл окно обработки&lt;/font&gt;" style="html=1;verticalAlign=bottom;endArrow=block;entryX=0;entryY=0;labelBackgroundColor=none;fontFamily=Verdana;fontSize=12;edgeStyle=elbowEdgeStyle;elbow=vertical;" edge="1" parent="1">
          <mxGeometry relative="1" as="geometry">
            <mxPoint x="157" y="534.1666666666667" as="sourcePoint" />
            <mxPoint x="287" y="534" as="targetPoint" />
          </mxGeometry>
        </mxCell>
        <mxCell id="z16xJ5DNF8u_oxPosoF0-19" value="&lt;div&gt;&lt;font style=&quot;font-size: 9px&quot;&gt;Проверяет и &lt;br&gt;&lt;/font&gt;&lt;/div&gt;&lt;div&gt;&lt;font style=&quot;font-size: 9px&quot;&gt;отрабатывает документы &lt;br&gt;&lt;/font&gt;&lt;/div&gt;&lt;div&gt;&lt;font style=&quot;font-size: 9px&quot;&gt;Прием на работу списком&lt;/font&gt;&lt;/div&gt;" style="html=1;verticalAlign=bottom;endArrow=block;" edge="1" parent="1">
          <mxGeometry width="80" relative="1" as="geometry">
            <mxPoint x="584.3299999999999" y="495" as="sourcePoint" />
            <mxPoint x="453.9966666666665" y="495" as="targetPoint" />
          </mxGeometry>
        </mxCell>
      </root>
    </mxGraphModel>
  </diagram>
</mxfile>
